HIERARCHY
ROOT Hips
{
  OFFSET 222.193 91.1173 162.92
  CHANNELS 6 Xposition Yposition Zposition Zrotation Xrotation Yrotation
  JOINT ToSpine
  {
    OFFSET -2.69724 7.43032 -0.144315
    CHANNELS 3 Zrotation Xrotation Yrotation
    JOINT Spine
    {
      OFFSET -0.0310711 10.7595 1.96963
      CHANNELS 3 Zrotation Xrotation Yrotation
      JOINT Spine1
      {
        OFFSET 13.1342 3.43533 0.764692
        CHANNELS 3 Zrotation Xrotation Yrotation
        JOINT Neck
        {
          OFFSET 29.8703 7.82586 -0.130764
          CHANNELS 3 Zrotation Xrotation Yrotation
          JOINT Head
          {
            OFFSET 9.52751 0.295786 -0.907742
            CHANNELS 3 Zrotation Xrotation Yrotation
            End Site
            {
              OFFSET 16.4037 0.713936 2.7358
            }
          }
        }
        JOINT LeftShoulder
        {
          OFFSET 27.5574 4.95586 2.47156
          CHANNELS 3 Zrotation Xrotation Yrotation
          JOINT LeftArm
          {
            OFFSET 1.20734 -0.998971 20.1238
            CHANNELS 3 Zrotation Xrotation Yrotation
            JOINT LeftForeArm
            {
              OFFSET 26.8049 -0.0536703 -0.155908
              CHANNELS 3 Zrotation Xrotation Yrotation
              JOINT LeftHand
              {
                OFFSET 26.6817 0 0.320147
                CHANNELS 3 Zrotation Xrotation Yrotation
                End Site
                {
                  OFFSET 18.6119 0 0.382219
                }
              }
            }
          }
        }
        JOINT RightShoulder
        {
          OFFSET 27.5927 4.71444 -2.65209
          CHANNELS 3 Zrotation Xrotation Yrotation
          JOINT RightArm
          {
            OFFSET 2.83739 -1.17114 -18.7564
            CHANNELS 3 Zrotation Xrotation Yrotation
            JOINT RightForeArm
            {
              OFFSET 28.839 -0.0548439 1.22491
              CHANNELS 3 Zrotation Xrotation Yrotation
              JOINT RightHand
              {
                OFFSET 26.5114 0 -0.101894
                CHANNELS 3 Zrotation Xrotation Yrotation
                End Site
                {
                  OFFSET 18.2168 0 0
                }
              }
            }
          }
        }
      }
    }
  }
  JOINT LeftUpLeg
  {
    OFFSET -4.76168 -1.9167 -10.2353
    CHANNELS 3 Zrotation Xrotation Yrotation
    JOINT LeftLeg
    {
      OFFSET 2.55951 -42.0585 -8.02213
      CHANNELS 3 Zrotation Xrotation Yrotation
      JOINT LeftFoot
      {
        OFFSET 3.16357 -42.5282 -3.95426
        CHANNELS 3 Zrotation Xrotation Yrotation
        JOINT LeftToeBase
        {
          OFFSET 0.346054 -6.02161 12.8035
          CHANNELS 3 Zrotation Xrotation Yrotation
          End Site
          {
            OFFSET 0.134235 -1.35082 5.13018
          }
        }
      }
    }
  }
  JOINT RightUpLeg
  {
    OFFSET -4.94151 -1.41743 10.6446
    CHANNELS 3 Zrotation Xrotation Yrotation
    JOINT RightLeg
    {
      OFFSET -2.56294 -42.0364 -7.94377
      CHANNELS 3 Zrotation Xrotation Yrotation
      JOINT RightFoot
      {
        OFFSET -3.0952 -42.555 -4.02241
        CHANNELS 3 Zrotation Xrotation Yrotation
        JOINT RightToeBase
        {
          OFFSET -0.0828122 -6.13587 12.8035
          CHANNELS 3 Zrotation Xrotation Yrotation
          End Site
          {
            OFFSET -0.131328 -1.35082 5.13018
          }
        }
      }
    }
  }
}
MOTION
Frames:	6
Frame Time:	0.0333333
-299.628 95.6701 -306.994 -67.6933 36.734 165.137 -70.1915 0 88.8779 90.5034 70.5406 -5.6553 0.655663 19.648 2.30018 -156.976 20.0701 172.107 -153.101 58.9573 -177.045 -0.127316 -15.6498 -31.9969 -70.7918 45.1862 -82.3345 10.4434 13.6912 -37.5303 0.420957 0.000575453 0.35866 -1.98619 5.72824 48.9918 -66.17 -31.2015 83.1465 4.87529 -7.41948 33.8178 0.58676 0.000331119 0.0646653 -53.5286 -3.29905 95.8995 -2.0324 34.0928 -12.4814 2.5217 -9.31911 -0.945509 2.19652 -6.41883 5.81082 -38.7268 -0.711104 89.1994 2.02549 48.7916 -3.07729 -3.46424 -0.659473 0.626603 2.08813 -12.9199 -10.4275 
-296.51 95.9008 -304.697 -68.4092 36.1746 165.899 -70.1915 0 88.8779 88.439 70.7682 -3.97706 0.625641 19.6836 2.77358 -156.584 20.0904 171.497 -153.271 58.9449 -177.737 -0.0976243 -15.5951 -31.6432 -67.3772 47.8994 -82.8376 9.40644 15.3765 -31.6255 0.420957 0.000575453 0.35866 -1.9705 5.69982 48.9013 -66.7737 -30.6261 85.2582 9.25567 -12.6043 36.8621 0.58676 0.000331119 0.0646653 -51.7253 -2.79985 96.6452 -2.1075 33.3723 -13.2574 2.612 -9.03927 -0.933809 0.739267 -3.76953 6.15256 -42.8847 -1.53963 87.9815 2.36916 55.4074 -6.28404 -1.5511 -1.62072 0.449953 1.94098 -12.8061 -7.56841 
-293.312 95.5061 -302.377 -67.95 35.8225 165.367 -70.1915 0 88.8779 84.0604 71.3948 0.883446 0.860519 20.593 1.81677 -156.294 20.5284 170.736 -153.234 59.3568 -178.426 -0.0732435 -15.4844 -31.6278 -68.3768 49.0123 -80.3108 8.8395 19.4898 -27.6448 0.420957 0.000575453 0.35866 -1.93557 5.67568 48.47 -68.9482 -30.2966 86.5934 12.1596 -14.5574 40.6475 0.58676 0.000331119 0.0646653 -47.9849 -2.92981 96.8094 -2.38168 34.6669 -12.4355 2.52348 -8.94926 -0.924216 -0.16799 -1.9638 5.90411 -47.0729 -2.36517 86.7233 2.21278 58.7112 -9.66033 -8.60225 1.46714 1.25772 2.62514 -21.3001 -1.00503 
-290.242 95.0832 -300.009 -67.4227 35.805 165.034 -70.1915 0 88.8779 81.1542 72.1616 4.93693 0.667386 22.0221 0.818645 -156.06 20.9275 168.603 -150.504 59.2763 177.701 -0.00618127 -15.3127 -30.9887 -76.227 48.8405 -72.4702 9.55412 27.801 -25.9163 0.420957 0.000575453 0.35866 -1.93064 5.72737 48.0946 -70.4648 -30.1751 87.9162 13.3753 -14.3154 43.9032 0.58676 0.000331119 0.0646653 -44.9985 -3.271 95.7857 -2.48654 34.606 -10.2849 3.37057 -8.11245 -0.924875 -0.472452 -0.660769 3.99164 -51.3717 -2.3716 87.1569 3.65144 61.2729 -6.19119 -3.40323 2.36637 0.475293 2.32921 -19.7763 -9.23555 
-286.949 93.9152 -297.764 -66.9389 36.046 164.583 -70.1915 0 88.8779 78.5076 73.283 8.40115 0.68572 23.6823 0.0177388 -157.121 21.648 166.948 -148.964 59.542 174.418 0.13073 -14.7824 -30.3476 -86.359 46.4405 -63.1502 10.5892 37.4302 -24.4011 0.420957 0.000575453 0.35866 -1.94098 5.87122 47.4624 -72.0657 -29.8254 88.8672 12.6497 -12.0343 47.1445 0.58676 0.000331119 0.0646653 -40.1973 -3.09647 95.4138 -2.83687 38.2837 -10.1383 4.22434 -7.83338 -0.962273 -0.50853 -1.11845 5.37968 -56.3616 -1.61342 87.9411 4.49315 60.8984 -2.1704 -7.50851 4.11459 1.06974 2.13477 -22.8409 -17.149 
-283.06 92.2606 -295.23 -65.9891 36.251 164.733 -70.1915 0 88.8779 79.228 74.6188 9.76167 0.496967 25.4228 -0.95918 -159.809 22.7834 166.612 -149.001 60.379 172.271 0.16434 -14.6529 -30.1627 -90.9094 44.0769 -58.6143 10.7701 41.5452 -23.2706 0.420957 0.000575453 0.35866 -1.92018 6.12741 45.7906 -74.2366 -29.5357 90.312 14.8642 -12.7959 50.1534 0.58676 0.000331119 0.0646653 -33.4716 -2.14721 94.3551 -3.28004 43.6924 -9.36228 3.86246 -7.79288 -0.938631 -0.976224 -0.821284 6.97679 -60.4047 -0.26713 88.2458 4.32132 58.7334 -0.169192 -7.57842 3.54821 1.08786 2.2338 -26.2786 -14.4601 
